<svg
  width="60"
  height="60"
  viewBox="0 0 60 60"
  fill="none"
  xmlns="http://www.w3.org/2000/svg"
  focusable="false"
  aria-hidden="true"
  style="pointer-events: none; display: inherit; width: 100%; height: 100%"
>
  <g clip-path="url(#a_yt341)">
    <path
      d="M30 .5C46.292.5 59.5 13.708 59.5 30S46.292 59.5 30 59.5.5 46.292.5 30 13.708.5 30 .5Z"
      fill="#fff"
      stroke="#e8e8e8"
    ></path>
    <path
      d="M48.128 21.552C46.768 15.508 41.457 11 35.108 11h-13.75C13.979 11 8 17.088 8 24.6c0 3.76 1.497 7.16 3.92 9.624z"
      fill="#b0c6ff"
    ></path>
    <path
      d="M11.92 34.224a13.6 13.6 0 0 0 3.505 6.336l13.94 14.192c.156.16.369.248.588.248a.84.84 0 0 0 .833-.847V44.6h7.858c7.292 0 13.216-5.948 13.354-13.336.07-3.772-1.43-7.208-3.87-9.712z"
      fill="#578cff"
    ></path>
    <path
      d="M35.108 38.2c7.378 0 13.358-6.089 13.358-13.6 0-1.049-.118-2.068-.338-3.049-2.49-2.56-5.964-4.152-9.747-4.152H24.894c-7.379 0-13.358 6.089-13.358 13.6 0 1.097.13 2.177.385 3.225 2.416 2.456 5.752 3.976 9.437 3.976z"
      fill="#0057cc"
    ></path>
  </g>
  <defs>
    <clipPath id="a_yt341"><path fill="#fff" d="M0 0h60v60H0z"></path></clipPath>
  </defs>
</svg>
